:SAMPLES-PER-SECOND 30
:FULLY-SPECIFIED
:DEGREES
265
root  18.3277 39.2339 -14.4315 38.3729 -83.891 -41.3221
RightUpLeg  -11.4136 -13.7607 3.94322
RightLeg  24.0079 -3.12078 -0.156986
RightFoot  -9.4691 -0.00898727 -3.39755
RightToes  0.000482159 0.542163 -0.142577
Spine  10.7348 -2.0114 11.5436
Spine1  4.04755 -0.860092 2.09677
HEad  5.57651 -0.455295 -1.53053
LeftShoulder1  7.86909 -11.9271 -44.4097
LeftArm  -9.19754 25.1777 -29.18
LeftForeArm  37.6118 -34.0663 -5.4232
LeftHand  -0.25398 0.0180481 5.50724
RightShoulder  4.1079 6.96137 33.3073
RightArm  -11.7689 -16.439 35.8974
RightForeArm  -3.99817 29.7056 6.6802
RightHand  -2.28553 6.60893 -22.2483
LeftUpLeg  -13.0436 6.54683 3.07149
LeftLeg  62.9364 2.63689 6.22114
LeftFoot  8.45349 0.7012 -4.3226
LeftToes  1.06246e-005 4.65855e-005 -8.18503e-006
266
root  16.6465 39.5426 -14.3461 33.0214 -85.1954 -35.804
RightUpLeg  -7.47034 -12.325 1.54988
RightLeg  21.9256 -3.88328 0.97625
RightFoot  -10.6812 -0.0534553 -3.17511
RightToes  0.000482159 0.542163 -0.142577
Spine  9.92259 -1.11643 11.0129
Spine1  3.69151 0.13996 0.774527
HEad  6.94763 -1.32741 -1.74031
LeftShoulder1  7.75091 -11.8062 -44.0718
LeftArm  -9.72926 26.9904 -28.9027
LeftForeArm  35.1127 -32.92 -5.2797
LeftHand  -0.25398 0.0180481 5.50724
RightShoulder  4.09066 6.91948 33.2993
RightArm  -9.42 -15.1951 36.6301
RightForeArm  -2.16057 33.4666 7.56663
RightHand  -2.24292 6.33293 -22.3368
LeftUpLeg  -17.3056 8.08292 1.88229
LeftLeg  59.4209 2.80532 5.68637
LeftFoot  6.15103 0.4508 -3.17031
LeftToes  1.06246e-005 4.65855e-005 -8.18503e-006
267
root  14.9966 39.7907 -14.2348 26.7595 -86.5764 -29.5491
RightUpLeg  -3.3031 -11.0118 -0.655031
RightLeg  19.3601 -3.9939 2.06673
RightFoot  -11.7715 -0.0871198 -2.20062
RightToes  0.000482159 0.542163 -0.142577
Spine  9.52617 -0.325302 10.5616
Spine1  3.17398 1.06969 -0.883902
HEad  7.94965 -1.81471 -1.92225
LeftShoulder1  7.6423 -11.6755 -43.8151
LeftArm  -10.0681 28.7821 -28.3746
LeftForeArm  33.9456 -31.8556 -5.08852
LeftHand  -0.25398 0.0180481 5.50724
RightShoulder  4.15989 7.05285 33.4587
RightArm  -7.09562 -13.9323 36.9545
RightForeArm  -0.138086 37.2591 8.5417
RightHand  -2.13993 5.93975 -22.0537
LeftUpLeg  -20.3399 10.0768 0.724892
LeftLeg  52.9978 2.94055 4.64557
LeftFoot  3.49544 0.32815 -2.70671
LeftToes  1.06246e-005 4.65855e-005 -8.18503e-006
268
root  13.3771 39.86 -14.0984 20.3011 -87.4996 -23.0932
RightUpLeg  0.497901 -10.3916 -2.35278
RightLeg  17.3664 -3.50328 2.96739
RightFoot  -13.1586 -0.11106 -1.3409
RightToes  0.000482159 0.542163 -0.142577
Spine  9.12238 0.184382 10.3413
Spine1  2.88054 1.66172 -2.23572
HEad  8.44718 -1.92244 -2.03714
LeftShoulder1  7.54624 -11.5576 -43.5908
LeftArm  -10.1111 30.3321 -27.8537
LeftForeArm  33.7495 -30.5346 -4.79061
LeftHand  -0.25398 0.0180481 5.50724
RightShoulder  4.2157 7.18486 33.4947
RightArm  -5.09339 -12.3816 37.3066
RightForeArm  1.8911 40.5463 9.46326
RightHand  -1.99875 5.3965 -21.6417
LeftUpLeg  -22.2244 12.1918 -0.151835
LeftLeg  43.7497 3.15714 3.60856
LeftFoot  1.2632 0.357162 -3.29862
LeftToes  1.06246e-005 4.65855e-005 -8.18503e-006
269
root  11.7469 39.826 -13.9273 14.9062 -88.1361 -17.395
RightUpLeg  3.86395 -10.1316 -3.59219
RightLeg  15.5506 -2.87375 3.54039
RightFoot  -14.3694 -0.128874 -1.17991
RightToes  0.000482159 0.542163 -0.142577
Spine  8.19668 0.563088 10.4045
Spine1  3.01061 2.08901 -3.60499
HEad  8.58524 -1.90461 -2.0497
LeftShoulder1  7.45892 -11.4668 -43.3333
LeftArm  -9.50512 31.5178 -27.4751
LeftForeArm  33.5003 -28.5795 -4.36201
LeftHand  -0.25398 0.0180481 5.50724
RightShoulder  4.21385 7.23173 33.3064
RightArm  -3.67203 -10.7161 37.8661
RightForeArm  3.81982 43.0411 10.2093
RightHand  -1.8709 4.8744 -21.2886
LeftUpLeg  -23.1147 14.6582 -1.24286
LeftLeg  31.4485 2.43175 2.28041
LeftFoot  0.690373 0.346157 -3.32783
LeftToes  1.06246e-005 4.65855e-005 -8.18503e-006
270
root  10.1274 39.8017 -13.7248 14.3621 -89.3576 -16.4906
RightUpLeg  7.26303 -10.037 -5.06984
RightLeg  13.245 -1.36317 3.85774
RightFoot  -15.1829 -0.124451 -0.673152
RightToes  0.000482159 0.542163 -0.142577
Spine  7.3631 1.04678 10.254
Spine1  3.40356 2.78613 -5.41667
HEad  8.66788 -1.85441 -1.888
LeftShoulder1  7.33255 -11.2927 -43.0856
LeftArm  -8.33714 32.4339 -27.2652
LeftForeArm  32.7261 -26.026 -3.83919
LeftHand  -0.25398 0.0180481 5.50724
RightShoulder  4.22468 7.31302 33.1126
RightArm  -2.74919 -9.28125 38.3174
RightForeArm  5.52458 44.7412 10.7309
RightHand  -1.78252 4.55334 -20.9419
LeftUpLeg  -22.3623 15.0298 -1.48842
LeftLeg  16.4504 2.98405 -0.193015
LeftFoot  0.931369 0.266311 -2.51917
LeftToes  1.06246e-005 4.65855e-005 -8.18503e-006
271
root  8.4804 39.656 -13.4689 -148.164 -88.8373 145.913
RightUpLeg  10.538 -10.3967 -7.01682
RightLeg  12.2072 1.52432 3.96064
RightFoot  -16.4401 -0.0714348 0.866959
RightToes  0.000482159 0.542163 -0.142577
Spine  7.33025 1.5376 9.99313
Spine1  3.61583 3.65964 -7.05232
HEad  8.88595 -1.66761 -1.45277
LeftShoulder1  7.14467 -10.9906 -42.8401
LeftArm  -7.5368 33.3258 -27.3198
LeftForeArm  31.8749 -23.2236 -3.37369
LeftHand  -0.25398 0.0180481 5.50724
RightShoulder  4.2807 7.47302 33.0542
RightArm  -2.13584 -8.20016 38.5398
RightForeArm  6.79209 45.5628 10.9646
RightHand  -1.7208 4.37251 -20.5991
LeftUpLeg  -19.5267 6.43899 2.7937
LeftLeg  1.88378 13.0689 -4.66867
LeftFoot  -0.00646651 0.291052 -2.98743
LeftToes  1.06246e-005 4.65855e-005 -8.18503e-006
272
root  6.7421 39.3449 -13.1282 -166.789 -87.5454 163.981
RightUpLeg  13.4735 -11.223 -9.00983
RightLeg  13.2261 4.58369 3.82473
RightFoot  -17.7987 0.0142484 2.41223
RightToes  0.000482159 0.542163 -0.142577
Spine  7.57565 1.81099 9.92554
Spine1  3.53998 4.15257 -7.95994
HEad  9.20044 -1.42415 -0.721172
LeftShoulder1  6.96542 -10.744 -42.4644
LeftArm  -8.27311 34.3491 -27.7375
LeftForeArm  31.9791 -20.4331 -3.28072
LeftHand  -0.25398 0.0180481 5.50724
RightShoulder  4.30846 7.56135 32.9941
RightArm  -1.87639 -7.55001 38.812
RightForeArm  7.32847 45.442 10.8802
RightHand  -1.68957 4.25089 -20.4812
LeftUpLeg  -18.3321 3.91606 4.00387
LeftLeg  -5.78436 17.5264 -6.85944
LeftFoot  -2.36187 0.384453 -4.66076
LeftToes  1.06246e-005 4.65855e-005 -8.18503e-006
273
root  4.9293 39.0158 -12.7238 -162.498 -87.3673 159.331
RightUpLeg  16.0857 -11.9483 -10.9824
RightLeg  14.8857 6.50289 3.3853
RightFoot  -18.3559 0.126409 4.0726
RightToes  0.000482159 0.542163 -0.142577
Spine  7.34656 1.66673 9.3257
Spine1  3.74537 4.10772 -8.24518
HEad  9.56491 -1.41234 0.169203
LeftShoulder1  6.87552 -10.6953 -42.0319
LeftArm  -9.85868 35.425 -28.3865
LeftForeArm  32.7142 -17.7882 -3.42016
LeftHand  -0.25398 0.0180481 5.50724
RightShoulder  4.2692 7.49983 32.8552
RightArm  -2.03582 -7.59241 39.074
RightForeArm  6.99428 44.6044 10.5781
RightHand  -1.71254 4.28773 -20.6736
LeftUpLeg  -19.1223 3.88599 3.19135
LeftLeg  -4.39034 19.6186 -6.92246
LeftFoot  -2.69676 0.324306 -4.12783
LeftToes  1.06246e-005 4.65855e-005 -8.18503e-006
274
root  3.02699 38.645 -12.2685 -147.787 -87.5347 144.258
RightUpLeg  18.442 -11.7071 -13.1097
RightLeg  17.2443 7.86111 3.01278
RightFoot  -18.6593 0.39036 7.9841
RightToes  0.000482159 0.542163 -0.142577
Spine  6.81203 1.51807 7.71751
Spine1  4.04526 3.76617 -7.64793
HEad  10.1216 -1.78659 1.06301
LeftShoulder1  6.84681 -10.6754 -41.9063
LeftArm  -10.8578 36.2621 -28.8105
LeftForeArm  33.2902 -15.3163 -3.61958
LeftHand  -0.25398 0.0180481 5.50724
RightShoulder  4.24048 7.41298 32.9007
RightArm  -2.45655 -8.49327 38.8045
RightForeArm  6.08055 43.1616 10.1031
RightHand  -1.79338 4.60229 -20.9671
LeftUpLeg  -20.9269 4.81491 0.90826
LeftLeg  2.74239 18.7419 -4.83009
LeftFoot  1.41969 0.0687615 -0.83958
LeftToes  1.06246e-005 4.65855e-005 -8.18503e-006
